# xmcd CD database file
#
# Track frame offsets:
#	150
#	21782
#	42561
#	64068
#
# Disc length: 1128 seconds
#
# Revision: 2
# Processed by: cddbd v1.5.2PL0 Copyright (c) Steve Scherf et al.
# Submitted via: CDex 1.70beta2
#
DISCID=30046604
DTITLE=観月ありさ - Through the Season
DYEAR=1998
DGENRE=JPop
TTITLE0=Through the Season
TTITLE1=Previous days
TTITLE2=Through the Season (Instrumental)
TTITLE3=Previous days (Instrumental)
EXTD=Gatekeepers 21 Single [PCCG-589] YEAR: 1998
EXTT0=
EXTT1=
EXTT2=
EXTT3=
PLAYORDER=
